<svg width="15" height="17" viewBox="0 0 15 17" fill="none" xmlns="http://www.w3.org/2000/svg">
<path d="M7.5 17C6.45833 17 5.48264 16.8109 4.57292 16.4327C3.66319 16.0544 2.86806 15.5344 2.1875 14.8725C1.50694 14.2106 0.972222 13.4372 0.583333 12.5524C0.194444 11.6677 0 10.7187 0 9.7056H1.25C1.25 11.3941 1.85764 12.8294 3.07292 14.0113C4.28819 15.1933 5.76389 15.7843 7.5 15.7843C9.23611 15.7843 10.7118 15.1933 11.9271 14.0113C13.1424 12.8294 13.75 11.3941 13.75 9.7056C13.75 8.01708 13.1597 6.58184 11.9792 5.39988C10.7986 4.21792 9.34028 3.62694 7.60417 3.62694H7.125L8.64583 5.10608L7.79167 5.95709L4.72917 2.97855L7.79167 0L8.64583 0.830751L7.02083 2.4112H7.5C8.54167 2.4112 9.51736 2.60032 10.4271 2.97855C11.3368 3.35677 12.1319 3.87684 12.8125 4.53874C13.4931 5.20064 14.0278 5.97398 14.4167 6.85876C14.8056 7.74354 15 8.69249 15 9.7056C15 10.7187 14.8056 11.6677 14.4167 12.5524C14.0278 13.4372 13.4931 14.2106 12.8125 14.8725C12.1319 15.5344 11.3368 16.0544 10.4271 16.4327C9.51736 16.8109 8.54167 17 7.5 17Z" fill="#9E9E9E"/>
</svg>
