<svg width="31" height="30" viewBox="0 0 31 30" fill="none" xmlns="http://www.w3.org/2000/svg">
<path d="M15.9904 2.5C9.09036 2.5 3.49036 8.1 3.49036 15C3.49036 21.9 9.09036 27.5 15.9904 27.5C22.8904 27.5 28.4904 21.9 28.4904 15C28.4904 8.1 22.8904 2.5 15.9904 2.5ZM10.1779 23.125C11.8154 21.95 13.8154 21.25 15.9904 21.25C18.1654 21.25 20.1654 21.95 21.8029 23.125C20.1654 24.3 18.1654 25 15.9904 25C13.8154 25 11.8154 24.3 10.1779 23.125ZM23.6654 21.4C21.5529 19.75 18.8904 18.75 15.9904 18.75C13.0904 18.75 10.4279 19.75 8.31536 21.4C6.86536 19.6625 5.99036 17.4375 5.99036 15C5.99036 9.475 10.4654 5 15.9904 5C21.5154 5 25.9904 9.475 25.9904 15C25.9904 17.4375 25.1154 19.6625 23.6654 21.4Z" fill="black" fill-opacity="0.8"/>
<path d="M15.9904 7.5C13.5779 7.5 11.6154 9.4625 11.6154 11.875C11.6154 14.2875 13.5779 16.25 15.9904 16.25C18.4029 16.25 20.3654 14.2875 20.3654 11.875C20.3654 9.4625 18.4029 7.5 15.9904 7.5ZM15.9904 13.75C14.9529 13.75 14.1154 12.9125 14.1154 11.875C14.1154 10.8375 14.9529 10 15.9904 10C17.0279 10 17.8654 10.8375 17.8654 11.875C17.8654 12.9125 17.0279 13.75 15.9904 13.75Z" fill="black" fill-opacity="0.8"/>
</svg>
