<svg width="30" height="30" viewBox="0 0 30 30" fill="none" xmlns="http://www.w3.org/2000/svg">
<mask id="mask0_2060_248" style="mask-type:alpha" maskUnits="userSpaceOnUse" x="1" y="4" width="28" height="24">
<path fill-rule="evenodd" clip-rule="evenodd" d="M3.94973 6.31368C1.21606 9.04735 1.21606 13.4795 3.94973 16.2132L5.36394 17.6274L15.2635 27.5269L25.163 17.6274L26.5772 16.2132C29.3108 13.4795 29.3108 9.04735 26.5772 6.31368C23.8435 3.58001 19.4113 3.58001 16.6777 6.31368L15.2635 7.72789L13.8492 6.31368C11.1156 3.58001 6.6834 3.58001 3.94973 6.31368Z" fill="white"/>
</mask>
<g mask="url(#mask0_2060_248)">
<path d="M3.94973 16.2132L2.53551 17.6274L3.94973 16.2132ZM5.36394 17.6274L6.77815 16.2132L5.36394 17.6274ZM15.2635 27.5269L13.8492 28.9411L15.2635 30.3553L16.6777 28.9411L15.2635 27.5269ZM15.2635 7.72789L13.8492 9.14211L15.2635 10.5563L16.6777 9.14211L15.2635 7.72789ZM13.8492 6.31368L12.435 7.72789L13.8492 6.31368ZM5.36394 14.799C3.41132 12.8463 3.41132 9.68052 5.36394 7.72789L2.53551 4.89947C-0.979199 8.41419 -0.979209 14.1127 2.53551 17.6274L5.36394 14.799ZM6.77815 16.2132L5.36394 14.799L2.53551 17.6274L3.94973 19.0416L6.77815 16.2132ZM16.6777 26.1127L6.77815 16.2132L3.94973 19.0416L13.8492 28.9411L16.6777 26.1127ZM23.7487 16.2132L13.8492 26.1127L16.6777 28.9411L26.5772 19.0416L23.7487 16.2132ZM25.163 14.799L23.7487 16.2132L26.5772 19.0416L27.9914 17.6274L25.163 14.799ZM25.163 7.72789C27.1156 9.68052 27.1156 12.8463 25.163 14.799L27.9914 17.6274C31.5061 14.1127 31.5061 8.41419 27.9914 4.89947L25.163 7.72789ZM18.0919 7.72789C20.0445 5.77527 23.2103 5.77527 25.163 7.72789L27.9914 4.89947C24.4767 1.38475 18.7782 1.38475 15.2635 4.89947L18.0919 7.72789ZM16.6777 9.14211L18.0919 7.72789L15.2635 4.89947L13.8492 6.31368L16.6777 9.14211ZM12.435 7.72789L13.8492 9.14211L16.6777 6.31368L15.2635 4.89946L12.435 7.72789ZM5.36394 7.72789C7.31656 5.77527 10.4824 5.77527 12.435 7.72789L15.2635 4.89946C11.7487 1.38475 6.05023 1.38475 2.53551 4.89947L5.36394 7.72789Z" fill="black"/>
</g>
</svg>
