<svg width="13" height="10" viewBox="0 0 13 10" fill="none" xmlns="http://www.w3.org/2000/svg">
<path fill-rule="evenodd" clip-rule="evenodd" d="M5.5564 8.74829L12.3228 1.38516L11.6462 0.648849L5.5564 7.27566L1.67664 3.05375L1 3.79006L4.87976 8.01197L4.87976 8.01198L5.5564 8.74829Z" fill="black"/>
<path d="M12.3228 1.38516L12.5069 1.55432L12.6623 1.38516L12.5069 1.216L12.3228 1.38516ZM5.5564 8.74829L5.37232 8.91745L5.5564 9.11777L5.74047 8.91745L5.5564 8.74829ZM11.6462 0.648849L11.8302 0.479689L11.6462 0.279377L11.4621 0.479689L11.6462 0.648849ZM5.5564 7.27566L5.37232 7.44482L5.5564 7.64513L5.74048 7.44482L5.5564 7.27566ZM1.67664 3.05375L1.86072 2.88459L1.67664 2.68427L1.49256 2.88459L1.67664 3.05375ZM1 3.79006L0.815922 3.6209L0.660471 3.79006L0.815922 3.95922L1 3.79006ZM4.87976 8.01197L5.06559 8.17922L5.21768 8.01022L5.06384 7.84281L4.87976 8.01197ZM4.87976 8.01198L4.69393 7.84474L4.54184 8.01373L4.69568 8.18114L4.87976 8.01198ZM12.1387 1.216L5.37232 8.57913L5.74047 8.91745L12.5069 1.55432L12.1387 1.216ZM11.4621 0.81801L12.1387 1.55432L12.5069 1.216L11.8302 0.479689L11.4621 0.81801ZM5.74048 7.44482L11.8302 0.81801L11.4621 0.479689L5.37232 7.1065L5.74048 7.44482ZM1.49256 3.22291L5.37232 7.44482L5.74048 7.1065L1.86072 2.88459L1.49256 3.22291ZM1.18408 3.95922L1.86072 3.22291L1.49256 2.88459L0.815922 3.6209L1.18408 3.95922ZM5.06384 7.84281L1.18408 3.6209L0.815922 3.95922L4.69568 8.18113L5.06384 7.84281ZM5.06558 8.17922L5.06559 8.17922L4.69394 7.84473L4.69393 7.84474L5.06558 8.17922ZM5.74047 8.57913L5.06383 7.84282L4.69568 8.18114L5.37232 8.91745L5.74047 8.57913Z" fill="black"/>
</svg>
