<svg width="31" height="30" viewBox="0 0 31 30" fill="none" xmlns="http://www.w3.org/2000/svg">
<path d="M20.371 17.5H19.3835L19.0335 17.1625C20.2585 15.7375 20.996 13.8875 20.996 11.875C20.996 7.3875 17.3585 3.75 12.871 3.75C8.38347 3.75 4.74597 7.3875 4.74597 11.875C4.74597 16.3625 8.38347 20 12.871 20C14.8835 20 16.7335 19.2625 18.1585 18.0375L18.496 18.3875V19.375L24.746 25.6125L26.6085 23.75L20.371 17.5ZM12.871 17.5C9.75847 17.5 7.24597 14.9875 7.24597 11.875C7.24597 8.7625 9.75847 6.25 12.871 6.25C15.9835 6.25 18.496 8.7625 18.496 11.875C18.496 14.9875 15.9835 17.5 12.871 17.5Z" fill="black" fill-opacity="0.8"/>
</svg>
