<svg width="145" height="20" viewBox="0 0 145 20" fill="none" xmlns="http://www.w3.org/2000/svg">
<line y1="12.5" x2="50" y2="12.5" stroke="#B3B3B3"/>
<line x1="95" y1="12.5" x2="145" y2="12.5" stroke="#B3B3B3"/>
<path d="M69.242 16.196C71.104 16.196 72.756 14.726 72.756 12.22C72.756 9.672 71.104 8.216 69.242 8.216C67.366 8.216 65.714 9.672 65.714 12.22C65.714 14.726 67.366 16.196 69.242 16.196ZM69.242 15.132C67.912 15.132 67.03 13.956 67.03 12.22C67.03 10.456 67.912 9.28 69.242 9.28C70.558 9.28 71.44 10.456 71.44 12.22C71.44 13.956 70.558 15.132 69.242 15.132ZM74.7782 16H76.0522V11.128C76.5562 9.826 77.3402 9.364 77.9702 9.364C78.2782 9.364 78.4462 9.406 78.7122 9.49L78.9502 8.37C78.6982 8.258 78.4742 8.216 78.1382 8.216C77.2842 8.216 76.5002 8.818 75.9822 9.784H75.9402L75.8142 8.398H74.7782V16Z" fill="#B3B3B3"/>
</svg>
