<svg width="30" height="30" viewBox="0 0 30 30" fill="none" xmlns="http://www.w3.org/2000/svg">
<rect width="30" height="30" fill="white"/>
<mask id="path-2-inside-1_1937_251" fill="white">
<path fill-rule="evenodd" clip-rule="evenodd" d="M23.6247 18.5269L23.6251 18.5272L14.9996 27.1528L3.7864 15.9396C1.40453 13.5577 1.40453 9.69592 3.7864 7.31405C6.16827 4.93218 10.03 4.93218 12.4119 7.31405L14.9992 9.90133L17.5878 7.31277C19.9696 4.9309 23.8314 4.9309 26.2133 7.31277C28.5952 9.69465 28.5952 13.5564 26.2133 15.9383L23.6247 18.5269Z"/>
</mask>
<path d="M23.6247 18.5269L21.857 16.7591L20.0914 18.5247L21.8548 20.2924L23.6247 18.5269ZM23.6251 18.5272L25.3929 20.295L27.1585 18.5294L25.3951 16.7617L23.6251 18.5272ZM14.9996 27.1528L13.2318 28.9205L14.9996 30.6883L16.7674 28.9205L14.9996 27.1528ZM3.7864 15.9396L5.55417 14.1718L5.55417 14.1718L3.7864 15.9396ZM3.7864 7.31405L2.01864 5.54628L2.01864 5.54628L3.7864 7.31405ZM12.4119 7.31405L14.1797 5.54628L14.1797 5.54628L12.4119 7.31405ZM14.9992 9.90133L13.2314 11.6691L14.9992 13.4369L16.767 11.6691L14.9992 9.90133ZM17.5878 7.31277L15.82 5.54501L15.82 5.54501L17.5878 7.31277ZM26.2133 7.31277L27.9811 5.54501L27.9811 5.54501L26.2133 7.31277ZM21.8548 20.2924L21.8552 20.2928L25.3951 16.7617L25.3947 16.7613L21.8548 20.2924ZM21.8573 16.7595L13.2318 25.385L16.7674 28.9205L25.3929 20.295L21.8573 16.7595ZM16.7674 25.385L5.55417 14.1718L2.01863 17.7073L13.2318 28.9205L16.7674 25.385ZM5.55417 14.1718C4.14861 12.7662 4.14861 10.4874 5.55417 9.08181L2.01864 5.54628C-1.33954 8.90446 -1.33955 14.3491 2.01863 17.7073L5.55417 14.1718ZM5.55417 9.08182C6.95973 7.67626 9.23859 7.67626 10.6441 9.08181L14.1797 5.54628C10.8215 2.1881 5.37682 2.1881 2.01864 5.54628L5.55417 9.08182ZM10.6441 9.08181L13.2314 11.6691L16.767 8.13357L14.1797 5.54628L10.6441 9.08181ZM16.767 11.6691L19.3555 9.08054L15.82 5.54501L13.2314 8.13357L16.767 11.6691ZM19.3555 9.08054C20.7611 7.67498 23.04 7.67498 24.4455 9.08054L27.9811 5.54501C24.6229 2.18682 19.1782 2.18682 15.82 5.54501L19.3555 9.08054ZM24.4455 9.08054C25.8511 10.4861 25.8511 12.765 24.4455 14.1705L27.9811 17.7061C31.3392 14.3479 31.3392 8.90319 27.9811 5.54501L24.4455 9.08054ZM24.4455 14.1705L21.857 16.7591L25.3925 20.2946L27.9811 17.7061L24.4455 14.1705Z" fill="black" mask="url(#path-2-inside-1_1937_251)"/>
</svg>
