<svg width="31" height="30" viewBox="0 0 31 30" fill="none" xmlns="http://www.w3.org/2000/svg">
<path d="M20.4307 16.25C21.3682 16.25 22.1932 15.7375 22.6182 14.9625L27.0932 6.85C27.5557 6.025 26.9557 5 26.0057 5H7.50566L6.33066 2.5H2.24316V5H4.74316L9.24316 14.4875L7.55566 17.5375C6.64316 19.2125 7.84316 21.25 9.74316 21.25H24.7432V18.75H9.74316L11.1182 16.25H20.4307ZM8.69316 7.5H23.8807L20.4307 13.75H11.6557L8.69316 7.5ZM9.74316 22.5C8.36816 22.5 7.25566 23.625 7.25566 25C7.25566 26.375 8.36816 27.5 9.74316 27.5C11.1182 27.5 12.2432 26.375 12.2432 25C12.2432 23.625 11.1182 22.5 9.74316 22.5ZM22.2432 22.5C20.8682 22.5 19.7557 23.625 19.7557 25C19.7557 26.375 20.8682 27.5 22.2432 27.5C23.6182 27.5 24.7432 26.375 24.7432 25C24.7432 23.625 23.6182 22.5 22.2432 22.5Z" fill="black" fill-opacity="0.8"/>
</svg>
